<?xml version="1.0" encoding="utf-8"?>
<!-- Generator: Adobe Illustrator 17.1.0, SVG Export Plug-In . SVG Version: 6.00 Build 0)  -->
<!DOCTYPE svg PUBLIC "-//W3C//DTD SVG 1.1//EN" "http://www.w3.org/Graphics/SVG/1.1/DTD/svg11.dtd">
<svg version="1.1" id="barbeque" xmlns="http://www.w3.org/2000/svg" xmlns:xlink="http://www.w3.org/1999/xlink" x="0px" y="0px"
	 viewBox="0 0 1010 1010" enable-background="new 0 0 1010 1010" xml:space="preserve">
<g>
	<path id="barbeque-label" fill="#FFB400" d="M1010,505c0,278.9111-226.0996,505-505,505S0,783.9111,0,505
		C0,226.1104,226.0996,0,505,0S1010,226.1104,1010,505z"/>
	<g id="barbeque-barbeque">
		<g>
			<path fill="#FFFFFF" d="M505,615.0967c-114.1509,0-213.9346-92.9893-222.4277-207.2832
				c-0.5039-6.6192,1.8081-13.249,6.3559-18.1485c4.5376-4.8984,10.9702-7.7148,17.6333-7.7148h396.876
				c6.6641,0,13.0752,2.8052,17.623,7.7041c4.5372,4.8989,6.8604,11.5186,6.3672,18.1704
				C718.9121,522.1074,619.1396,615.0967,505,615.0967L505,615.0967z M306.5615,402.1587c-1.4575,0-2.3891,0.7783-2.8164,1.2388
				c-0.4385,0.4599-1.1401,1.4575-1.0303,2.9043C310.4521,510.293,401.1943,594.8877,505,594.8877
				c103.7949,0,194.5371-84.5947,202.2852-188.5645c0.1093-1.4682-0.6036-2.4658-1.0313-2.937
				c-0.4268-0.4604-1.3682-1.2275-2.8164-1.2275H306.5615L306.5615,402.1587z"/>
		</g>
		<g>
			<polygon fill="#FFFFFF" points="512.2988,774.334 492.0903,774.334 492.0903,604.4873 512.2988,604.4873 512.2988,774.334 			"/>
		</g>
		<g>
			<path fill="none" d="M485.646,774.334"/>
		</g>
		<g>
			<path fill="#FFFFFF" d="M337.2368,363.4287c-2.5864,0-5.1728-0.9971-7.1455-2.9692
				c-12.7129-12.7237-12.4824-33.645,0.5259-46.6314c3.6059-3.6059,6.6196-9.206,0.4599-15.376
				c-3.9448-3.9458-3.9335-10.3349,0.0113-14.2802c3.9453-3.9453,10.3349-3.9341,14.2798,0.0112
				c12.7895,12.8003,12.5922,30.8608-0.4712,43.9351c-5.1284,5.1181-5.3589,13.2168-0.5152,18.0717
				c3.9458,3.9458,3.9346,10.3345-0.0107,14.2798C342.3984,362.4424,339.8228,363.4287,337.2368,363.4287L337.2368,363.4287z"/>
		</g>
		<g>
			<path fill="#FFFFFF" d="M681.4209,363.4287c-2.5859,0-5.1719-0.9863-7.1445-2.959
				c-12.7139-12.7236-12.4833-33.6445,0.5156-46.6416c3.6152-3.6059,6.6289-9.206,0.4707-15.376
				c-3.9463-3.9458-3.9346-10.3349,0.0098-14.2802c3.9464-3.9453,10.3349-3.9341,14.2802,0.0112
				c12.7901,12.8003,12.5928,30.8608-0.4716,43.9351c-5.1281,5.1181-5.3584,13.228-0.5147,18.0615
				c3.9453,3.9448,3.9453,10.3447,0,14.29C686.5938,362.4424,684.0078,363.4287,681.4209,363.4287L681.4209,363.4287z"/>
		</g>
		<g>
			<path fill="#FFFFFF" d="M416.9536,363.4287c-2.5859,0-5.1616-0.9863-7.1338-2.959
				c-7.8359-7.8247-12.1538-18.3125-12.1538-29.5239c0.0108-11.5947,4.5811-22.5537,12.8872-30.8389
				c4.4502-4.4604,6.8501-9.4028,6.9268-14.291c0.0766-4.7563-2.0933-9.4687-6.2583-13.6338
				c-3.9448-3.9336-3.9561-10.3335-0.0103-14.2798c3.9453-3.9448,10.3345-3.956,14.2798-0.0102
				c8.1318,8.1206,12.3506,17.8848,12.1865,28.2529c-0.164,10.2246-4.603,20.0005-12.8442,28.2417
				c-4.4932,4.4937-6.959,10.3672-6.959,16.5703c-0.0112,5.8081,2.2026,11.211,6.2139,15.2227
				c3.9448,3.9448,3.956,10.3335,0.0112,14.2798C422.1265,362.4424,419.5405,363.4287,416.9536,363.4287L416.9536,363.4287z"/>
		</g>
		<g>
			<path fill="#FFFFFF" d="M591.6211,363.4287c-2.5859,0-5.1621-0.9863-7.1338-2.959
				c-7.8369-7.8247-12.1543-18.3017-12.1543-29.5127c0-11.6059,4.5703-22.5649,12.8779-30.8501
				c4.4493-4.4604,6.8379-9.4028,6.9258-14.291c0.0663-4.7563-2.0928-9.4687-6.2578-13.6338
				c-3.9453-3.9336-3.956-10.3335-0.0107-14.2798c3.9453-3.9448,10.3339-3.956,14.2802-0.0102
				c8.1309,8.1206,12.3496,17.8848,12.1748,28.2529c-0.1533,10.2246-4.5908,20.0005-12.832,28.2417
				c-4.4941,4.4937-6.9599,10.3672-6.9599,16.5703c0,5.8081,2.2128,11.211,6.2246,15.2227
				c3.9462,3.9336,3.956,10.3335,0.0107,14.2798C596.7939,362.4316,594.208,363.4287,591.6211,363.4287L591.6211,363.4287z"/>
		</g>
		<g>
			<path fill="#FFFFFF" d="M499.0059,363.4287c-2.587,0-5.1621-0.9863-7.1353-2.959c-9.3477-9.3261-14.4883-21.7319-14.4883-34.9155
				c0-13.1948,5.1406-25.6011,14.4776-34.9385c5.6113-5.5888,8.5703-11.9126,8.5703-18.2793c0-6.3784-2.959-12.7021-8.5703-18.3022
				c-3.9453-3.9448-3.9453-10.3452,0-14.291c3.9458-3.9449,10.3457-3.9449,14.2905,0c9.4697,9.4804,14.4775,20.7461,14.4775,32.5932
				c0,11.8467-5.0078,23.1128-14.4883,32.5703c-5.5122,5.524-8.559,12.855-8.559,20.6475c0,7.7808,3.0356,15.1128,8.559,20.6255
				c3.9454,3.9448,3.9561,10.3335,0.0108,14.2798C504.1782,362.4316,501.5918,363.4287,499.0059,363.4287L499.0059,363.4287z"/>
		</g>
		<g>
			<polygon fill="#FFFFFF" points="688.3906,763.1221 605.4521,577.166 623.9072,568.9473 706.8457,754.9033 688.3906,763.1221 			
				"/>
		</g>
		<g>
			<polygon fill="#FFFFFF" points="311.9209,763.1113 293.4658,754.8701 378.5967,564.0703 397.0518,572.3115 311.9209,763.1113 			
				"/>
		</g>
	</g>
</g>
</svg>
